<svg xmlns="http://www.w3.org/2000/svg" xmlns:xlink="http://www.w3.org/1999/xlink" width="500" zoomAndPan="magnify" viewBox="0 0 375 374.999991" height="500" preserveAspectRatio="xMidYMid meet" version="1.0"><defs><clipPath id="id1"><path d="M 112.5 112.5 L 262.5 112.5 L 262.5 262.5 L 112.5 262.5 Z M 112.5 112.5 " clip-rule="nonzero"/></clipPath></defs><g clip-path="url(#id1)"><path fill="rgb(100%, 100%, 100%)" d="M 187.5 262.5 C 228.855469 262.5 262.5 228.855469 262.5 187.5 C 262.5 146.144531 228.855469 112.5 187.5 112.5 C 146.144531 112.5 112.5 146.144531 112.5 187.5 C 112.5 228.855469 146.144531 262.5 187.5 262.5 Z M 187.5 121.875 C 223.6875 121.875 253.125 151.3125 253.125 187.5 C 253.125 223.6875 223.6875 253.125 187.5 253.125 C 151.3125 253.125 121.875 223.6875 121.875 187.5 C 121.875 151.3125 151.3125 121.875 187.5 121.875 Z M 187.5 121.875 " fill-opacity="1" fill-rule="nonzero"/></g><path fill="rgb(100%, 100%, 100%)" d="M 161.851562 200.96875 L 171.652344 196.714844 L 168.898438 199.46875 C 168.019531 200.347656 167.523438 201.542969 167.523438 202.78125 L 167.523438 221.125 C 167.523438 225.324219 172.601562 227.363281 175.523438 224.4375 L 185.363281 214.597656 L 206.800781 225.320312 C 209.574219 226.707031 212.933594 225.0625 213.503906 221.960938 L 225.738281 154.707031 C 226.382812 151.089844 222.816406 148.164062 219.414062 149.5 L 139.9375 180.605469 C 136.375 181.992188 135.898438 186.867188 139.125 188.925781 L 157.464844 200.625 C 158.773438 201.460938 160.429688 201.59375 161.851562 200.96875 Z M 215.011719 161.300781 L 205.40625 214.144531 L 186.53125 204.710938 C 184.707031 203.800781 182.53125 204.179688 181.125 205.59375 L 176.898438 209.820312 L 176.898438 204.738281 L 195.695312 185.945312 C 199.335938 182.300781 195.238281 176.289062 190.511719 178.332031 L 160.40625 191.394531 L 151.945312 185.992188 Z M 215.011719 161.300781 " fill-opacity="1" fill-rule="nonzero"/></svg>