<svg xmlns="http://www.w3.org/2000/svg" xmlns:xlink="http://www.w3.org/1999/xlink" width="500" zoomAndPan="magnify" viewBox="0 0 375 374.999991" height="500" preserveAspectRatio="xMidYMid meet" version="1.0"><defs><clipPath id="id1"><path d="M 112.5 112.5 L 262.5 112.5 L 262.5 262.5 L 112.5 262.5 Z M 112.5 112.5 " clip-rule="nonzero"/></clipPath></defs><g clip-path="url(#id1)"><path fill="rgb(100%, 100%, 100%)" d="M 240.421875 134.304688 C 226.382812 120.25 207.710938 112.507812 187.8125 112.5 C 146.820312 112.5 113.453125 145.855469 113.433594 186.847656 C 113.425781 199.949219 116.851562 212.746094 123.359375 224.015625 L 112.8125 262.550781 L 152.242188 252.210938 C 163.101562 258.136719 175.339844 261.253906 187.785156 261.261719 L 187.816406 261.261719 C 228.808594 261.261719 262.175781 227.90625 262.195312 186.910156 C 262.195312 167.042969 254.464844 148.355469 240.421875 134.304688 Z M 187.8125 248.703125 L 187.785156 248.703125 C 176.695312 248.695312 165.816406 245.71875 156.324219 240.085938 L 154.0625 238.75 L 130.667969 244.886719 L 136.910156 222.082031 L 135.441406 219.742188 C 129.253906 209.902344 125.988281 198.527344 125.988281 186.851562 C 126 152.777344 153.734375 125.058594 187.828125 125.058594 C 204.34375 125.066406 219.863281 131.503906 231.535156 143.183594 C 243.207031 154.867188 249.628906 170.390625 249.621094 186.902344 C 249.617188 220.980469 221.886719 248.703125 187.8125 248.703125 Z M 221.71875 202.417969 C 219.859375 201.492188 210.722656 196.992188 209.023438 196.375 C 207.316406 195.753906 206.078125 195.449219 204.839844 197.304688 C 203.601562 199.164062 200.042969 203.347656 198.957031 204.585938 C 197.875 205.824219 196.792969 205.980469 194.929688 205.050781 C 193.070312 204.125 187.082031 202.15625 179.988281 195.828125 C 174.460938 190.90625 170.730469 184.816406 169.648438 182.957031 C 168.566406 181.09375 169.53125 180.09375 170.464844 179.164062 C 171.296875 178.332031 172.324219 176.992188 173.253906 175.910156 C 174.179688 174.828125 174.492188 174.050781 175.113281 172.8125 C 175.738281 171.574219 175.425781 170.484375 174.957031 169.554688 C 174.492188 168.628906 170.777344 159.480469 169.226562 155.761719 C 167.71875 152.140625 166.183594 152.632812 165.042969 152.578125 C 163.960938 152.519531 162.722656 152.515625 161.484375 152.515625 C 160.246094 152.515625 158.226562 152.980469 156.527344 154.84375 C 154.828125 156.703125 150.023438 161.195312 150.023438 170.339844 C 150.023438 179.484375 156.683594 188.320312 157.613281 189.558594 C 158.539062 190.796875 170.714844 209.5625 189.359375 217.613281 C 193.792969 219.523438 197.257812 220.667969 199.953125 221.527344 C 204.40625 222.941406 208.457031 222.742188 211.660156 222.261719 C 215.234375 221.726562 222.660156 217.769531 224.203125 213.429688 C 225.753906 209.089844 225.753906 205.371094 225.285156 204.597656 C 224.820312 203.8125 223.582031 203.347656 221.71875 202.417969 Z M 221.71875 202.417969 " fill-opacity="1" fill-rule="nonzero"/></g></svg>