<svg xmlns="http://www.w3.org/2000/svg" xmlns:xlink="http://www.w3.org/1999/xlink" width="500" zoomAndPan="magnify" viewBox="0 0 375 374.999991" height="500" preserveAspectRatio="xMidYMid meet" version="1.0"><defs><clipPath id="id1"><path d="M 112.5 128.625 L 262.5 128.625 L 262.5 246.375 L 112.5 246.375 Z M 112.5 128.625 " clip-rule="nonzero"/></clipPath></defs><g clip-path="url(#id1)"><path fill="rgb(100%, 100%, 100%)" d="M 187.5 128.625 C 165.671875 128.625 146.355469 130.882812 134.605469 132.640625 C 124.988281 134.0625 117.335938 141.585938 115.578125 151.246094 C 114.074219 159.691406 112.566406 172.027344 112.566406 187.5 C 112.566406 202.972656 114.074219 215.308594 115.578125 223.753906 C 117.335938 233.414062 124.988281 240.898438 134.605469 242.359375 C 146.394531 244.117188 165.796875 246.375 187.5 246.375 C 209.203125 246.375 228.5625 244.117188 240.355469 242.359375 L 240.394531 242.359375 C 250.011719 240.9375 257.664062 233.414062 259.421875 223.753906 C 260.925781 215.265625 262.433594 202.929688 262.433594 187.5 C 262.433594 172.027344 260.925781 159.691406 259.378906 151.246094 C 257.664062 141.585938 250.011719 134.0625 240.394531 132.640625 C 228.644531 130.882812 209.328125 128.625 187.5 128.625 Z M 187.5 139.328125 C 208.574219 139.328125 227.433594 141.503906 238.804688 143.21875 C 243.824219 143.972656 247.878906 147.902344 248.84375 153.128906 C 250.265625 161.03125 251.726562 172.738281 251.726562 187.5 C 251.726562 202.261719 250.265625 213.96875 248.882812 221.828125 C 247.921875 227.097656 243.867188 231.027344 238.804688 231.78125 C 227.347656 233.453125 208.449219 235.671875 187.5 235.671875 C 166.550781 235.671875 147.609375 233.453125 136.195312 231.78125 C 131.175781 231.027344 127.078125 227.097656 126.117188 221.828125 C 124.734375 213.925781 123.273438 202.261719 123.273438 187.5 C 123.273438 172.699219 124.734375 161.03125 126.117188 153.128906 C 127.078125 147.902344 131.132812 143.972656 136.152344 143.261719 L 136.195312 143.261719 C 147.566406 141.546875 166.425781 139.328125 187.5 139.328125 Z M 166.089844 160.738281 L 166.089844 214.261719 L 219.613281 187.5 Z M 166.089844 160.738281 " fill-opacity="1" fill-rule="nonzero"/></g></svg>